<?xml version="1.0" encoding="UTF-8"?>
<svg width="4px" height="8px" viewBox="0 0 4 8" version="1.1" xmlns="http://www.w3.org/2000/svg" xmlns:xlink="http://www.w3.org/1999/xlink">
    <title>left</title>
    <g id="Page-1" stroke="none" stroke-width="1" fill="none" fill-rule="evenodd">
        <g id="album" transform="translate(-562.000000, -988.000000)" fill="#2d49a7" fill-rule="nonzero">
            <path d="M562.158922,988.670053 C561.940347,988.925385 561.940347,989.301883 562.158922,989.557215 L564.100853,991.825713 C564.180964,991.919295 564.180964,992.057285 564.100853,992.150867 L562.158922,994.419365 C561.940347,994.674697 561.940347,995.051195 562.158922,995.306527 C562.338448,995.516243 562.653991,995.540717 562.863707,995.361191 C562.883312,995.344408 562.901588,995.326132 562.918371,995.306527 L565.341404,992.476022 C565.581735,992.195276 565.581735,991.781304 565.341404,991.500558 L562.918371,988.670053 C562.738845,988.460337 562.423302,988.435864 562.213586,988.615389 C562.193981,988.632172 562.175705,988.650448 562.158922,988.670053 Z" id="left" transform="translate(563.750000, 991.988290) scale(-1, -1) translate(-563.750000, -991.988290) "></path>
        </g>
    </g>
</svg>