<?xml version="1.0" encoding="UTF-8"?>
<svg width="8px" height="5px" viewBox="0 0 8 5" version="1.1" xmlns="http://www.w3.org/2000/svg" xmlns:xlink="http://www.w3.org/1999/xlink">
    <title>down</title>
    <g id="Page-1" stroke="none" stroke-width="1" fill="none" fill-rule="evenodd">
        <g id="album" transform="translate(-544.000000, -988.000000)" fill="#2d49a7" fill-rule="nonzero">
            <path d="M546.158922,987.027079 C545.940347,987.282411 545.940347,987.658909 546.158922,987.914241 L548.100853,990.182739 C548.180964,990.276321 548.180964,990.414311 548.100853,990.507893 L546.158922,992.776391 C545.940347,993.031723 545.940347,993.408221 546.158922,993.663553 C546.338448,993.873269 546.653991,993.897743 546.863707,993.718217 C546.883312,993.701434 546.901588,993.683158 546.918371,993.663553 L549.341404,990.833048 C549.581735,990.552302 549.581735,990.13833 549.341404,989.857584 L546.918371,987.027079 C546.738845,986.817363 546.423302,986.792889 546.213586,986.972415 C546.193981,986.989198 546.175705,987.007474 546.158922,987.027079 Z" id="down" transform="translate(547.750000, 990.345316) rotate(90.000000) translate(-547.750000, -990.345316) "></path>
        </g>
    </g>
</svg>