<?xml version="1.0" encoding="UTF-8"?>
<svg width="4px" height="8px" viewBox="0 0 4 8" version="1.1" xmlns="http://www.w3.org/2000/svg" xmlns:xlink="http://www.w3.org/1999/xlink">
    <title>right</title>
    <g id="Page-1" stroke="none" stroke-width="1" fill="none" fill-rule="evenodd">
        <g id="album" transform="translate(-569.000000, -986.000000)" fill="#2d49a7" fill-rule="nonzero">
            <path d="M569.158922,987.027079 C568.940347,987.282411 568.940347,987.658909 569.158922,987.914241 L571.100853,990.182739 C571.180964,990.276321 571.180964,990.414311 571.100853,990.507893 L569.158922,992.776391 C568.940347,993.031723 568.940347,993.408221 569.158922,993.663553 C569.338448,993.873269 569.653991,993.897743 569.863707,993.718217 C569.883312,993.701434 569.901588,993.683158 569.918371,993.663553 L572.341404,990.833048 C572.581735,990.552302 572.581735,990.13833 572.341404,989.857584 L569.918371,987.027079 C569.738845,986.817363 569.423302,986.792889 569.213586,986.972415 C569.193981,986.989198 569.175705,987.007474 569.158922,987.027079 Z" id="right" transform="translate(570.750000, 990.345316) scale(1, -1) translate(-570.750000, -990.345316) "></path>
        </g>
    </g>
</svg>